<svg xmlns="http://www.w3.org/2000/svg" width="131.882" height="132.936" viewBox="0 0 131.882 132.936">
  <g id="Logo_meteorite" data-name="Logo meteorite" transform="translate(0)">
    <path id="Path_204" data-name="Path 204" d="M466.436,320.6l16.916,16.92a54.925,54.925,0,1,1-77.135,76.741L389.451,397.5a62.8,62.8,0,1,0,76.985-76.9Z" transform="translate(-381.018 -311.099)" fill="#fff"/>
    <path id="Path_205" data-name="Path 205" d="M500.494,384.84l0-.117c-.009-.343-.022-.681-.039-1.024l-.009-.217c-.017-.312-.035-.625-.06-.932l-.022-.317c-.022-.282-.047-.564-.074-.841l-.043-.416c-.026-.247-.056-.5-.087-.746l-.065-.512-.052-.377c-.043-.3-.091-.594-.138-.889l-.03-.2c-.06-.356-.125-.711-.19-1.067l-.017-.082a46.4,46.4,0,0,0-10.392-21.5h0q-1.207-1.405-2.528-2.715l-.082-.082c-.26-.256-.524-.507-.788-.759l-.134-.126c-.251-.234-.507-.468-.762-.7l-.156-.134c-.255-.23-.515-.455-.775-.677l-.147-.122c-.273-.23-.55-.46-.831-.681l-.1-.087c-.311-.247-.623-.494-.943-.733l0,0a3.737,3.737,0,0,0-.705-1l-26.03-26.078a3.634,3.634,0,0,0-5.151,0l-.173.173a3.651,3.651,0,0,0,0,5.161l13.231,13.262c-.1-.022-.2-.039-.3-.056l-.757-.143c-.121-.022-.247-.039-.368-.061-.255-.043-.506-.082-.762-.121-.13-.022-.26-.039-.39-.056l-.749-.1c-.139-.017-.281-.03-.424-.048-.238-.026-.48-.056-.718-.078-.16-.017-.325-.03-.485-.043-.221-.022-.446-.043-.671-.061-.186-.013-.377-.022-.567-.035l-.6-.039-.706-.026c-.156,0-.311-.013-.467-.017-.394-.009-.788-.013-1.186-.013-.381,0-.766,0-1.147.013h-.074c-.346.013-.7.026-1.043.043l-.182.009c-.316.013-.628.035-.944.056l-.294.022q-.422.033-.844.078l-.337.03-19.667-19.707a3.634,3.634,0,0,0-5.151,0l-.177.178a3.651,3.651,0,0,0,0,5.161l16.148,16.176c-.139.043-.277.091-.416.134l-.441.143c-.229.074-.454.152-.68.23-.147.052-.29.1-.433.152-.182.069-.368.134-.55.2s-.381.143-.571.217l-.467.182c-.19.078-.385.156-.58.238l-.515.221c-.143.061-.281.122-.424.187-.216.1-.433.191-.649.291l-.407.191c-.2.1-.4.2-.606.295-.151.074-.3.147-.454.225s-.29.147-.433.221c-.208.108-.411.217-.615.325-.147.078-.294.156-.437.239s-.268.152-.4.226l-.242.134L406.845,321.3a3.642,3.642,0,0,0-5.15,0l-.178.178a3.659,3.659,0,0,0,0,5.161L424.7,349.872a46.492,46.492,0,0,0-6.683,6.7l-23.7-23.749a3.641,3.641,0,0,0-5.15,0l-.177.178a3.651,3.651,0,0,0,0,5.161L413.679,362.9l-.069.117c-.1.182-.2.36-.3.538l-.216.4c-.117.213-.23.429-.342.642-.069.134-.134.269-.2.4-.087.178-.178.351-.26.529s-.169.347-.251.516-.152.325-.225.49-.16.347-.238.525-.16.364-.238.546l-.164.386c-.1.234-.195.473-.29.711l-.156.39c-.091.238-.186.481-.277.729l-.134.369c-.069.2-.143.4-.212.607-.052.156-.108.317-.16.477-.065.2-.13.4-.195.6l-.113.356-14.3-14.329a3.634,3.634,0,0,0-5.15,0l-.173.178a3.651,3.651,0,0,0,0,5.161L407.832,381.1h0l-.026.3c-.03.295-.056.59-.082.885l-.017.265c-.021.321-.043.642-.06.967l-.009.16c-.017.356-.03.707-.039,1.067v.065c-.013.382-.017.768-.017,1.154s0,.794.017,1.188c0,.165.013.33.017.495.009.225.013.455.026.681s.026.425.039.637c.013.178.022.356.035.529.017.243.039.481.061.72.013.147.026.29.039.438.026.26.056.516.087.772.017.126.03.251.043.377.035.269.074.538.108.8.017.113.03.226.048.338.043.273.087.542.134.815l.052.317c.048.273.1.542.151.811l.048.265-13.244-13.275a3.641,3.641,0,0,0-5.15,0l-.178.178a3.652,3.652,0,0,0,0,5.161l26.026,26.078a3.622,3.622,0,0,0,1.021.72l.052.069c.221.29.441.577.666.859l.126.156c.212.26.42.52.636.776l.156.187c.208.243.42.49.636.733l.164.187c.216.243.437.486.658.724l.156.169c.238.247.476.5.718.742l.117.121q1.292,1.308,2.684,2.511h0a46.285,46.285,0,0,0,21.446,10.426l.1.017c.35.065.7.13,1.052.187l.216.039c.294.048.584.091.879.134l.39.052c.169.022.337.048.506.069.251.031.5.056.749.082l.411.043c.281.026.563.052.844.074l.316.026c.307.022.619.043.931.056l.221.013c.338.017.68.03,1.017.039h.121c.372.009.744.017,1.117.017s.74,0,1.108-.017q.377-.006.753-.026l.3-.009c.324-.017.645-.035.965-.056l.061,0c.346-.022.688-.052,1.03-.082h0a46.137,46.137,0,0,0,10.171-2.086l.017,0c1.424-.468,2.822-1,4.181-1.6l.009,0q2.038-.891,3.973-1.973l.009,0h0a46.7,46.7,0,0,0,17.525-17.178h0l0,0c.316-.538.619-1.084.913-1.635l.03-.061c.177-.334.355-.672.524-1.015l.073-.147c.156-.321.312-.642.463-.967l.065-.134q.649-1.405,1.2-2.854l.035-.082q.2-.533.39-1.067l.052-.147c.117-.338.234-.677.342-1.019l.039-.117h0a46.25,46.25,0,0,0,1.9-8.769h0c.026-.226.052-.455.074-.685l.022-.187c.026-.3.056-.6.078-.9l.017-.2c.026-.334.043-.668.06-1l.013-.23c.017-.338.03-.677.039-1.019l0-.178c.009-.364.013-.724.013-1.089S500.5,385.213,500.494,384.84Zm-46.446,39.3a37.874,37.874,0,1,1,37.8-37.874A37.837,37.837,0,0,1,454.048,424.141Z" transform="translate(-387.923 -318.881)" fill="#fff"/>
  </g>
</svg>
