<svg id="Component_19_1" data-name="Component 19 – 1" xmlns="http://www.w3.org/2000/svg" width="398.2" height="400.771" viewBox="0 0 398.2 400.771">
  <g id="Group_49" data-name="Group 49" transform="translate(-440.829 881.705)">
    <path id="Path_227" data-name="Path 227" d="M696.913-858.467l51.74,51.74a167.727,167.727,0,0,1,66.328,133.748,168,168,0,0,1-168,168A167.739,167.739,0,0,1,512.715-572l-51.279-51.28A192.125,192.125,0,0,0,646.984-480.934c106.063,0,192.045-85.981,192.045-192.045A192.127,192.127,0,0,0,696.913-858.467Z" fill="#fff"/>
    <path id="Path_228" data-name="Path 228" d="M791.8-676.464c0-.122,0-.245-.008-.369q-.042-1.594-.121-3.183c-.011-.228-.02-.457-.032-.684q-.078-1.453-.184-2.9c-.024-.329-.048-.658-.074-.987q-.105-1.309-.232-2.613-.063-.645-.133-1.292-.125-1.162-.265-2.321c-.066-.534-.137-1.067-.208-1.6-.053-.392-.109-.782-.165-1.173q-.2-1.386-.42-2.763c-.033-.207-.068-.412-.1-.618q-.279-1.669-.594-3.325c-.016-.085-.033-.171-.049-.256a144.359,144.359,0,0,0-32.4-66.893h0q-3.773-4.381-7.881-8.45c-.085-.084-.171-.166-.256-.249q-1.214-1.2-2.453-2.364l-.427-.4q-1.175-1.1-2.373-2.166c-.158-.142-.318-.283-.477-.424q-1.2-1.063-2.426-2.1c-.15-.126-.3-.254-.449-.379q-1.283-1.078-2.592-2.126l-.324-.261q-1.458-1.161-2.946-2.287l-.017-.013a11.355,11.355,0,0,0-2.2-3.1L650.845-872.9a11.356,11.356,0,0,0-16.06,0l-.549.549a11.355,11.355,0,0,0,0,16.059l41.259,41.26c-.307-.062-.617-.114-.925-.173-.788-.152-1.575-.3-2.367-.443-.382-.067-.766-.126-1.149-.19-.789-.132-1.578-.264-2.371-.383-.4-.062-.812-.114-1.218-.171-.775-.11-1.55-.221-2.329-.318-.441-.055-.885-.1-1.328-.152-.747-.086-1.494-.175-2.244-.251-.5-.05-1-.088-1.5-.133-.7-.062-1.4-.13-2.1-.182-.585-.044-1.174-.075-1.761-.112-.623-.039-1.244-.084-1.869-.115-.729-.037-1.461-.058-2.192-.084-.49-.017-.977-.042-1.468-.054q-1.839-.047-3.69-.047-1.793,0-3.573.045l-.23.005q-1.638.042-3.265.124l-.56.025q-1.473.078-2.938.187c-.307.022-.615.043-.922.067q-1.32.1-2.632.234c-.351.034-.7.066-1.053.1l-61.324-61.324a11.356,11.356,0,0,0-16.06,0l-.549.549a11.358,11.358,0,0,0,0,16.06l50.345,50.344c-.43.133-.857.273-1.286.409q-.69.221-1.377.447-1.066.352-2.126.72-.675.234-1.347.475-.855.308-1.706.623-.9.335-1.785.678-.727.283-1.453.573-.907.364-1.811.74-.808.337-1.611.684-.663.285-1.321.578-1.014.449-2.019.912-.641.3-1.277.6-.945.447-1.883.908-.713.35-1.421.706-.678.342-1.353.691-.963.5-1.917,1.011-.683.367-1.359.741-.632.348-1.258.7c-.248.14-.5.275-.745.416L499.82-874.162a11.355,11.355,0,0,0-16.059,0l-.549.548a11.356,11.356,0,0,0,0,16.06l72.27,72.27a145.738,145.738,0,0,0-20.83,20.836l-73.888-73.888a11.356,11.356,0,0,0-16.06,0l-.549.549a11.356,11.356,0,0,0,0,16.06l76.971,76.971c-.07.124-.137.248-.207.371q-.474.836-.936,1.676-.342.621-.68,1.246-.535,1-1.058,2.006-.322.624-.638,1.252-.414.819-.817,1.643-.393.8-.776,1.612-.357.753-.706,1.513-.375.816-.741,1.637-.377.844-.742,1.7c-.172.4-.345.8-.514,1.205q-.46,1.1-.9,2.212c-.161.4-.319.807-.477,1.211q-.439,1.131-.862,2.269c-.142.384-.28.77-.419,1.156q-.337.938-.662,1.881-.256.741-.5,1.487-.311.934-.609,1.875c-.118.371-.237.742-.352,1.114l-44.592-44.592a11.358,11.358,0,0,0-16.06,0l-.549.549a11.356,11.356,0,0,0,0,16.06L502.9-688.1h0c-.032.308-.06.616-.09.924q-.134,1.379-.245,2.762c-.021.269-.039.54-.058.81-.073,1-.139,2.01-.192,3.02-.008.165-.014.329-.022.494q-.081,1.653-.126,3.315c0,.067,0,.136,0,.2q-.045,1.791-.046,3.592,0,1.853.047,3.694c.013.516.039,1.03.058,1.546.025.706.045,1.413.08,2.117.033.663.081,1.322.123,1.982.035.55.064,1.1.105,1.651.056.748.127,1.491.194,2.235.042.456.076.914.122,1.368.08.8.175,1.6.269,2.4.045.392.085.785.134,1.176.105.835.223,1.665.342,2.495.05.351.1.7.147,1.054.128.848.269,1.691.412,2.534.055.329.106.661.164.99.147.842.309,1.679.471,2.515.054.276.1.554.155.829l-41.3-41.3a11.358,11.358,0,0,0-16.06,0l-.549.549a11.358,11.358,0,0,0,0,16.06l81.147,81.147a11.327,11.327,0,0,0,3.184,2.242c.054.072.111.14.165.212q1.023,1.348,2.075,2.67c.131.165.263.327.4.49q.977,1.217,1.979,2.413l.484.572q.978,1.153,1.979,2.285c.173.2.345.39.518.584q1.014,1.134,2.052,2.246c.164.177.328.354.493.529q1.1,1.168,2.227,2.312c.124.127.246.255.371.38q4.031,4.066,8.372,7.811h0a144.362,144.362,0,0,0,66.867,32.434l.307.059q1.635.312,3.281.587c.226.038.451.076.677.112q1.36.222,2.729.417c.4.057.809.115,1.215.169.528.071,1.057.142,1.587.207.776.1,1.554.183,2.334.267q.639.069,1.279.132,1.309.129,2.626.233c.328.026.655.05.983.074q1.447.105,2.9.184c.229.012.459.022.689.033q1.587.077,3.181.121l.375.007c1.157.028,2.317.045,3.482.045s2.3-.016,3.45-.044c.786-.018,1.567-.051,2.349-.082.315-.013.632-.021.947-.036,1.007-.046,2.011-.107,3.013-.173l.186-.012q1.609-.109,3.209-.254h0a144.148,144.148,0,0,0,31.716-6.494l.055-.018q6.663-2.17,13.029-4.957l.033-.014q6.357-2.779,12.384-6.138l.029-.016h0a145.56,145.56,0,0,0,54.644-53.457h0l.008-.015q1.473-2.511,2.846-5.085c.034-.063.066-.126.1-.188q.834-1.567,1.629-3.158l.225-.452q.744-1.5,1.454-3.02l.2-.419q2.02-4.359,3.756-8.872l.1-.266q.629-1.645,1.218-3.311.082-.231.163-.461.552-1.577,1.068-3.167c.04-.123.082-.245.121-.367v0a144.033,144.033,0,0,0,5.929-27.288l.008.008q.126-1.071.236-2.144c.019-.19.035-.38.054-.569q.14-1.4.25-2.816c.017-.209.035-.418.051-.629.078-1.036.142-2.075.2-3.119.012-.235.025-.472.036-.709q.077-1.582.121-3.174c.005-.187.008-.374.012-.561.026-1.127.043-2.254.043-3.386C791.849-674.144,791.832-675.306,791.8-676.464ZM646.995-554.186a117.851,117.851,0,0,1-117.85-117.851,117.849,117.849,0,0,1,117.85-117.849,117.849,117.849,0,0,1,117.85,117.849A117.851,117.851,0,0,1,646.995-554.186Z" fill="#fff"/>
  </g>
</svg>
