<svg xmlns="http://www.w3.org/2000/svg" xmlns:xlink="http://www.w3.org/1999/xlink" width="2724.227" height="3287.103" viewBox="400 0 2724.227 3287.103">
  <defs>
    <linearGradient id="linear-gradient" x1="0.212" y1="-0.281" x2="0.788" y2="1.281" gradientUnits="objectBoundingBox">
      <stop offset="0" stop-color="#fd1423"/>
      <stop offset="1" stop-color="#5a77d6"/>
    </linearGradient>
  </defs>
  <g id="Ellisse" transform="matrix(0.755, 0.656, -0.656, 0.755, 2096.13, 0)">
    <g id="Group_8" data-name="Group 8" transform="translate(-1401.669 5380.89) rotate(-155)">
      <rect id="Rectangle_738" data-name="Rectangle 738" width="753.369" height="353.636" rx="176.818" transform="translate(114.9 5178.639)" fill="url(#linear-gradient)"/>
    </g>
  </g>
  <rect id="Rectangle_748" data-name="Rectangle 748" width="1278.198" height="1377.636" rx="56" transform="translate(582.214 75.825) rotate(25)" fill="url(#linear-gradient)"/>

  <text id="Reviews" transform="translate(1110.456 1513.099)" fill="#fff" font-size="120" font-family="Corbel-Bold, Corbel" font-weight="700"><tspan x="-424.98" y="0">Reviews</tspan></text>
  <g id="Group_10" data-name="Group 10" transform="translate(-2153.875 -2605.853) rotate(-25)">
    <rect id="Rectangle_738-2" data-name="Rectangle 738" width="2105.09" height="939.09" rx="469.545" transform="translate(-94.158 5519.161)" fill="url(#linear-gradient)"/>
  </g>
  <text id="_Quote_blah_blah_blah..._Best_solution_ever_if_you_want_to_find_a_co-founder_and_be_serious_with_your_entrepreneurial_idea_" data-name="&quot;Quote blah blah blah... Best solution ever if you want to find a co-founder and be serious with your entrepreneurial idea&quot;" transform="translate(1294.456 1928.099)" fill="#fff" font-size="45" font-family="Corbel-Bold, Corbel" font-weight="700"><tspan x="41.517" y="43">&quot;Quote blah blah blah... Best solution </tspan><tspan x="13.986" y="93">ever if you want to find a co-founder and </tspan><tspan x="0.396" y="143">be serious with your entrepreneurial idea&quot;</tspan></text>
  <text id="Giuseppe_M." data-name="Giuseppe M." transform="translate(1266.456 2158.099)" font-size="80" font-family="Corbel-Bold, Corbel" font-weight="700"><tspan x="191.426" y="76">Giuseppe M.</tspan></text>
  <g id="Group_111" data-name="Group 111" transform="translate(-162.544 -2228.901)">
    <text id="Meet" transform="translate(863 2547)" fill="#fff" font-size="60" font-family="Corbel-Bold, Corbel" font-weight="700"><tspan x="0" y="57">Meet</tspan></text>
    <text id="Incontra_aspiranti_founder_e_team_member" data-name="Incontra aspiranti founder e team member" transform="translate(751 2636)" fill="#fff" font-size="30" font-family="Corbel-Bold, Corbel" font-weight="700"><tspan x="0" y="29">Incontra aspiranti </tspan><tspan x="0" y="64">founder e team </tspan><tspan x="0" y="99">member</tspan></text>
    <text id="_1." data-name="1." transform="translate(664 2523)" fill="#fff" font-size="80" font-family="Corbel-Bold, Corbel" font-weight="700"><tspan x="102.5164" y="76">1.</tspan></text>
  </g>
  <g id="Group_112" data-name="Group 112" transform="translate(-160.544 -2192.901)">
    <text id="Team" transform="translate(1239 2688)" fill="#fff" font-size="60" font-family="Corbel-Bold, Corbel" font-weight="700"><tspan x="0" y="57">Team</tspan></text>
    <text id="Crea_un_team_con_competenze_complementari" data-name="Crea un team con competenze complementari" transform="translate(1127 2777)" fill="#fff" font-size="30" font-family="Corbel-Bold, Corbel" font-weight="700"><tspan x="0" y="29">Crea un team con </tspan><tspan x="0" y="64">competenze </tspan><tspan x="0" y="99">complementari</tspan></text>
    <text id="_2." data-name="2." transform="translate(1040 2664)" fill="#fff" font-size="80" font-family="Corbel-Bold, Corbel" font-weight="700"><tspan x="102.516" y="76">2.</tspan></text>
  </g>
  <g id="Group_113" data-name="Group 113" transform="translate(-294.544 -1893.901)">
    <text id="Startup" transform="translate(1626 2728)" fill="#fff" font-size="60" font-family="Corbel-Bold, Corbel" font-weight="700"><tspan x="0" y="57">Startup</tspan></text>
    <text id="Avvia_la_tua_impresa_" data-name="Avvia la tua impresa!!" transform="translate(1547 2817)" fill="#fff" font-size="30" font-family="Corbel-Bold, Corbel" font-weight="700"><tspan x="0" y="29">Avvia la tua impresa!!</tspan></text>
    <text id="_3." data-name="3." transform="translate(1427 2704)" fill="#fff" font-size="80" font-family="Corbel-Bold, Corbel" font-weight="700"><tspan x="102.516" y="76">3.</tspan></text>
  </g>
  <g id="Group_30" data-name="Group 30" transform="translate(459.532 2077.579)">
    <path id="Path_215" data-name="Path 215" d="M1013.383,643.11l10.946,10.215a32.413,32.413,0,0,1,14.034,26.4c0,18.317-15.914,33.165-35.545,33.165a36.389,36.389,0,0,1-28.407-13.23l-10.849-10.123c4.634,16.181,20.452,28.1,39.256,28.1,22.441,0,40.632-16.973,40.632-37.912C1043.451,662.2,1030.7,647.449,1013.383,643.11Z" transform="translate(-959.203 -638.524)" fill="#fff"/>
    <path id="Path_216" data-name="Path 216" d="M1035.31,680.8l0-.073c-.007-.211-.016-.42-.026-.629l-.007-.135c-.01-.191-.024-.382-.038-.572l-.015-.194c-.016-.173-.031-.345-.051-.517-.009-.084-.017-.17-.028-.254-.017-.154-.035-.306-.055-.459-.014-.105-.03-.211-.043-.316-.012-.076-.024-.154-.035-.232-.028-.181-.057-.363-.09-.544l-.021-.122q-.06-.331-.125-.656l-.01-.052a27.785,27.785,0,0,0-6.857-13.205h0q-.8-.863-1.666-1.668l-.056-.049c-.17-.159-.344-.313-.518-.467l-.09-.079c-.167-.144-.333-.287-.5-.428l-.1-.083c-.169-.141-.341-.279-.512-.415l-.1-.075q-.271-.214-.547-.42l-.069-.052c-.2-.152-.413-.3-.624-.451l0,0a2.243,2.243,0,0,0-.465-.613l-17.17-16.019a2.523,2.523,0,0,0-3.4,0l-.116.107a2.139,2.139,0,0,0,0,3.172l8.73,8.144c-.064-.011-.13-.021-.2-.034-.167-.029-.332-.06-.5-.086-.08-.015-.161-.026-.243-.039-.167-.026-.333-.052-.5-.075-.085-.013-.172-.023-.257-.034-.163-.023-.328-.044-.493-.063-.092-.011-.188-.019-.28-.029-.16-.018-.316-.036-.476-.05-.106-.01-.212-.018-.318-.026-.147-.013-.3-.026-.443-.036-.125-.01-.248-.015-.373-.023s-.262-.016-.4-.023c-.153-.008-.307-.011-.464-.016l-.309-.011q-.391-.01-.782-.01t-.755.01l-.049,0c-.231,0-.462.013-.691.024l-.118,0c-.208.01-.415.023-.622.036l-.195.015c-.186.013-.372.029-.558.045-.075.006-.148.013-.222.021l-12.975-12.106a2.526,2.526,0,0,0-3.4,0l-.116.109a2.137,2.137,0,0,0,0,3.17l10.651,9.938-.271.081-.292.089c-.151.045-.3.092-.45.141l-.285.094c-.12.04-.242.081-.361.123l-.377.134-.307.112-.384.146-.34.136-.28.113-.427.18c-.09.039-.181.078-.269.118-.134.058-.268.118-.4.18-.1.045-.2.092-.3.139s-.191.089-.286.136c-.135.065-.271.131-.4.2l-.288.146c-.089.045-.177.092-.266.139l-.158.081-15.942-14.874a2.527,2.527,0,0,0-3.4,0l-.116.109a2.137,2.137,0,0,0,0,3.17l15.29,14.268a29.871,29.871,0,0,0-4.407,4.113L965.27,648.84a2.526,2.526,0,0,0-3.4,0l-.116.109a2.137,2.137,0,0,0,0,3.17l16.285,15.2-.045.075q-.1.163-.2.331c-.048.081-.1.164-.144.245-.075.131-.149.264-.222.4-.047.081-.09.164-.135.246-.059.109-.116.216-.174.324s-.109.212-.163.319-.1.2-.149.3-.106.216-.156.322-.106.224-.158.336c-.036.079-.073.159-.108.238-.066.144-.129.29-.193.436-.033.079-.066.16-.1.24l-.182.447-.089.229c-.047.123-.094.246-.139.371-.036.1-.073.2-.108.293-.043.123-.087.246-.128.371-.024.073-.05.146-.075.219l-9.433-8.8a2.525,2.525,0,0,0-3.4,0l-.116.107a2.139,2.139,0,0,0,0,3.172L974.186,678.5h0c-.007.06-.014.122-.019.182-.019.182-.037.363-.052.546l-.012.159c-.016.2-.029.4-.042.6l0,.1c-.012.219-.021.436-.028.655v.041c-.007.235-.01.471-.01.708s0,.488.01.729c0,.1.009.2.012.306.005.139.009.279.017.418s.017.261.026.391c.007.109.012.217.021.326.012.147.028.295.042.441.009.091.016.182.026.271.017.159.036.316.057.473.009.078.017.156.028.233.023.164.047.327.073.493.01.068.019.138.031.207.026.167.056.334.087.5.01.065.023.13.035.195.031.167.064.332.1.5.012.054.021.109.033.164l-8.739-8.155a2.526,2.526,0,0,0-3.4,0l-.117.109a2.138,2.138,0,0,0,0,3.17l17.168,16.02a2.4,2.4,0,0,0,.674.442l.035.042c.144.177.29.353.44.527l.083.1c.137.159.278.318.419.477l.1.112c.137.152.278.3.419.452l.109.115c.142.149.288.3.434.442l.1.105c.155.154.313.306.471.455l.08.076q.852.8,1.77,1.541h0a31.478,31.478,0,0,0,14.147,6.4l.066.011c.231.041.462.079.695.117l.142.021c.191.029.384.057.577.083l.257.034.337.04c.163.019.328.036.493.052l.271.027c.184.016.37.031.556.045l.207.014c.2.013.41.026.615.036l.146.006q.336.017.672.024l.08,0c.245.005.49.008.736.008s.488,0,.729-.008c.167,0,.332-.01.5-.016.066,0,.134,0,.2-.007.214-.01.426-.021.637-.034l.04,0c.226-.015.453-.031.677-.05h0a32.345,32.345,0,0,0,6.712-1.282l.01,0q1.409-.428,2.758-.979l.007,0q1.344-.547,2.619-1.211l.007,0h0a29.922,29.922,0,0,0,11.561-10.554h0l0,0c.207-.329.408-.664.6-1l.021-.037q.177-.309.346-.624l.047-.089c.106-.2.208-.4.307-.595l.042-.083q.427-.861.8-1.752l.021-.054c.089-.215.175-.434.257-.653l.035-.091c.078-.207.153-.417.226-.626l.026-.073h0a26.85,26.85,0,0,0,1.254-5.387l0,0c.017-.141.035-.282.051-.423l.012-.112c.019-.185.036-.37.052-.556l.01-.125c.017-.2.03-.41.042-.616l.009-.139c.01-.209.019-.417.024-.627l0-.11c.005-.222.009-.446.009-.669S1035.315,681.025,1035.31,680.8Zm-30.638,24.138c-13.772,0-24.935-10.416-24.935-23.265s11.163-23.265,24.935-23.265,24.934,10.416,24.934,23.265S1018.443,704.935,1004.673,704.935Z" transform="translate(-961.053 -640.28)" fill="#fff"/>
  </g>
  <text id="_Quote_blah_blah_blah..._" data-name="&quot;Quote blah blah blah... &quot;" transform="translate(666.456 2161.099)" fill="#fbfbfb" font-size="45" font-family="Corbel-Bold, Corbel" font-weight="700"><tspan x="159.906" y="43">&quot;Quote blah blah blah... &quot;</tspan></text>
  <text id="Giuseppe_M.-2" data-name="Giuseppe M." transform="translate(666.456 2244.099)" font-size="80" font-family="Corbel-Bold, Corbel" font-weight="700"><tspan x="191.426" y="76">Giuseppe M.</tspan></text>
  <g id="Group_30-2" data-name="Group 30" transform="matrix(-0.017, -1, 1, -0.017, 603.058, 1186.997)">
    <path id="Path_215-2" data-name="Path 215" d="M1167.136,643.11l44.727,42.853c34.848,25.414,57.346,65.567,57.346,110.759,0,76.839-65.025,139.131-145.24,139.131-47.445,0-89.575-21.791-116.076-55.5l-44.331-42.464c18.937,67.879,83.572,117.877,160.407,117.877,91.7,0,166.028-71.2,166.028-159.044C1290,723.193,1237.9,661.311,1167.136,643.11Z" transform="translate(-945.749 -623.87)" fill="#fff"/>
    <path id="Path_216-2" data-name="Path 216" d="M1264.478,810.25l-.006-.306c-.03-.884-.065-1.761-.108-2.638l-.029-.564c-.042-.8-.1-1.6-.156-2.4l-.063-.816c-.064-.727-.129-1.448-.206-2.169-.037-.353-.072-.713-.115-1.067-.071-.646-.141-1.285-.226-1.924-.057-.442-.122-.884-.179-1.325-.049-.319-.1-.646-.141-.973-.113-.761-.235-1.522-.369-2.284l-.086-.51q-.246-1.386-.512-2.753l-.041-.217a117.651,117.651,0,0,0-28.02-55.4h0q-3.259-3.621-6.806-7l-.228-.2c-.7-.667-1.406-1.313-2.115-1.958l-.369-.334c-.681-.6-1.362-1.2-2.05-1.794l-.419-.347c-.688-.592-1.392-1.169-2.094-1.74l-.39-.313q-1.108-.9-2.236-1.761l-.284-.218q-1.257-.958-2.548-1.89l-.015-.014a9.376,9.376,0,0,0-1.9-2.569l-70.156-67.2a10.113,10.113,0,0,0-13.883,0l-.476.45a9.137,9.137,0,0,0,0,13.3l35.672,34.164c-.263-.048-.532-.089-.8-.143-.681-.122-1.355-.251-2.044-.36-.326-.062-.659-.109-.993-.164-.681-.109-1.363-.217-2.051-.313-.347-.054-.7-.095-1.051-.142-.667-.1-1.341-.184-2.015-.266-.377-.047-.767-.081-1.143-.122-.652-.075-1.291-.149-1.945-.211-.432-.04-.865-.074-1.3-.108-.6-.054-1.207-.109-1.81-.149-.511-.041-1.015-.062-1.526-.1-.539-.034-1.073-.068-1.618-.1-.625-.034-1.256-.047-1.9-.068-.418-.013-.845-.034-1.263-.047q-1.6-.04-3.194-.04-1.543,0-3.087.04l-.2.007q-1.416.029-2.824.1l-.483.02c-.851.042-1.7.1-2.54.15l-.8.061c-.76.055-1.519.123-2.278.19-.306.027-.6.055-.908.089l-53.018-50.787a10.125,10.125,0,0,0-13.882,0l-.476.455a9.127,9.127,0,0,0,0,13.3l43.521,41.69c-.369.109-.738.224-1.107.34-.4.123-.795.246-1.192.374-.617.19-1.229.388-1.838.591-.389.13-.773.259-1.163.4-.49.17-.987.34-1.477.517-.511.183-1.029.374-1.54.564q-.63.233-1.256.469l-1.569.612-1.391.57c-.383.157-.76.313-1.142.476-.584.251-1.164.5-1.747.755-.369.164-.738.327-1.1.5q-.822.366-1.633.755c-.411.19-.816.387-1.227.585q-.585.275-1.171.571c-.553.272-1.108.55-1.653.837-.4.2-.789.408-1.179.611-.362.19-.724.387-1.085.585-.213.116-.433.224-.646.34l-65.139-62.4a10.128,10.128,0,0,0-13.883,0l-.475.456a9.126,9.126,0,0,0,0,13.3l62.478,59.856a123.414,123.414,0,0,0-18.006,17.255l-63.875-61.2a10.124,10.124,0,0,0-13.883,0l-.475.455a9.127,9.127,0,0,0,0,13.3l66.545,63.745-.186.313q-.4.683-.809,1.387c-.2.34-.39.687-.588,1.027-.306.55-.61,1.108-.909,1.665-.192.34-.369.687-.553,1.034-.242.456-.475.9-.71,1.36s-.447.891-.667,1.339c-.206.414-.412.829-.611,1.251-.219.449-.433.9-.639,1.353q-.328.7-.646,1.407c-.15.333-.3.666-.439,1-.271.606-.526,1.218-.789,1.829-.135.334-.269.673-.411,1.006q-.373.938-.746,1.877l-.362.959c-.191.517-.384,1.034-.568,1.557-.148.408-.3.823-.441,1.231-.177.517-.355,1.034-.524,1.557-.1.306-.206.612-.306.918l-38.545-36.924a10.12,10.12,0,0,0-13.889,0l-.476.448a9.137,9.137,0,0,0,0,13.3l48.056,46.028h0c-.028.251-.056.51-.078.761-.078.762-.149,1.523-.212,2.292l-.05.666c-.064.837-.121,1.666-.172,2.5l-.013.408c-.05.918-.086,1.829-.114,2.747v.17c-.028.986-.043,1.978-.043,2.97q0,1.54.043,3.06c.008.428.035.857.05,1.286.021.584.036,1.169.071,1.754.028.544.072,1.095.106,1.639.028.456.05.91.086,1.367.05.618.113,1.237.17,1.849.035.381.064.761.106,1.136.071.666.149,1.325.235,1.984.035.327.072.653.113.98q.138,1.028.3,2.066c.043.286.079.578.127.87.108.7.228,1.4.356,2.1.043.272.092.544.142.816.127.7.262,1.394.4,2.088.05.224.085.455.135.686L980.77,802.6a10.124,10.124,0,0,0-13.882,0l-.477.456a9.128,9.128,0,0,0,0,13.3l70.15,67.207a9.8,9.8,0,0,0,2.754,1.856l.142.177c.589.742,1.186,1.482,1.8,2.21l.34.408c.561.666,1.136,1.332,1.711,2l.418.469c.561.639,1.135,1.272,1.711,1.9l.447.482c.582.626,1.178,1.245,1.774,1.856l.426.442c.631.646,1.277,1.285,1.923,1.91l.327.32q3.482,3.365,7.232,6.466h0a127.085,127.085,0,0,0,57.808,26.862l.269.047c.945.17,1.889.333,2.838.491l.583.088q1.173.184,2.357.347l1.049.142c.463.055.917.116,1.377.17.668.082,1.342.15,2.016.218.37.041.738.075,1.108.115.752.068,1.511.13,2.27.191l.846.061c.837.054,1.675.109,2.512.15l.6.026q1.373.072,2.746.1l.328.007c1,.02,2,.033,3.009.033s1.995-.014,2.981-.033c.682-.014,1.355-.041,2.036-.068.271-.013.547-.013.817-.028.873-.04,1.739-.088,2.6-.142l.163-.014c.923-.061,1.853-.129,2.768-.211h0a129.127,129.127,0,0,0,27.424-5.378l.043-.013q5.759-1.794,11.271-4.106l.028-.014q5.494-2.294,10.7-5.078l.028-.014h0a123.521,123.521,0,0,0,47.24-44.273h0l.007-.014c.844-1.381,1.669-2.788,2.455-4.209l.086-.156c.483-.864.951-1.733,1.413-2.618l.192-.374c.432-.829.851-1.658,1.256-2.5l.169-.347q1.747-3.609,3.252-7.349l.084-.225c.362-.9.716-1.822,1.05-2.739l.143-.381c.318-.87.624-1.747.922-2.625l.108-.306h0a115.261,115.261,0,0,0,5.124-22.6l.005.007c.072-.592.144-1.183.208-1.775l.049-.469c.078-.775.15-1.551.214-2.332l.042-.523c.072-.857.121-1.721.171-2.584l.035-.585c.043-.877.078-1.747.1-2.631l.015-.462c.021-.932.035-1.871.035-2.809C1264.513,812.173,1264.5,811.208,1264.478,810.25ZM1139.289,911.51c-56.275,0-101.89-43.7-101.89-97.6s45.615-97.6,101.89-97.6,101.882,43.7,101.882,97.6S1195.555,911.51,1139.289,911.51Z" transform="translate(-961.053 -640.28)" fill="#fff"/>
  </g>
  <path id="Path_245" data-name="Path 245" d="M-1695,415.879s256.723-6.8,442.663,101.007,261.194,319.242,501.507,476.651S322.043,1470.189,322.043,1470.189" transform="translate(2052.453 170.805)" fill="none" stroke="#fff" stroke-width="15" stroke-dasharray="30 30"/>
</svg>
