<svg xmlns="http://www.w3.org/2000/svg" width="344.248" height="331.895" viewBox="0 0 344.248 331.895">
  <g id="Group_30" data-name="Group 30" transform="translate(0 0)">
    <path id="Path_215" data-name="Path 215" d="M1167.136,643.11l44.727,42.853c34.848,25.414,57.346,65.567,57.346,110.759,0,76.839-65.025,139.131-145.24,139.131-47.445,0-89.575-21.791-116.076-55.5l-44.331-42.464c18.937,67.879,83.572,117.877,160.407,117.877,91.7,0,166.028-71.2,166.028-159.044C1290,723.193,1237.9,661.311,1167.136,643.11Z" transform="translate(-945.749 -623.87)" fill="#000"/>
    <path id="Path_216" data-name="Path 216" d="M1264.478,810.25l-.006-.306c-.03-.884-.065-1.761-.108-2.638l-.029-.564c-.042-.8-.1-1.6-.156-2.4l-.063-.816c-.064-.727-.129-1.448-.206-2.169-.037-.353-.072-.713-.115-1.067-.071-.646-.141-1.285-.226-1.924-.057-.442-.122-.884-.179-1.325-.049-.319-.1-.646-.141-.973-.113-.761-.235-1.522-.369-2.284l-.086-.51q-.246-1.386-.512-2.753l-.041-.217a117.651,117.651,0,0,0-28.02-55.4h0q-3.259-3.621-6.806-7l-.228-.2c-.7-.667-1.406-1.313-2.115-1.958l-.369-.334c-.681-.6-1.362-1.2-2.05-1.794l-.419-.347c-.688-.592-1.392-1.169-2.094-1.74l-.39-.313q-1.108-.9-2.236-1.761l-.284-.218q-1.257-.958-2.548-1.89l-.015-.014a9.376,9.376,0,0,0-1.9-2.569l-70.156-67.2a10.113,10.113,0,0,0-13.883,0l-.476.45a9.137,9.137,0,0,0,0,13.3l35.672,34.164c-.263-.048-.532-.089-.8-.143-.681-.122-1.355-.251-2.044-.36-.326-.062-.659-.109-.993-.164-.681-.109-1.363-.217-2.051-.313-.347-.054-.7-.095-1.051-.142-.667-.1-1.341-.184-2.015-.266-.377-.047-.767-.081-1.143-.122-.652-.075-1.291-.149-1.945-.211-.432-.04-.865-.074-1.3-.108-.6-.054-1.207-.109-1.81-.149-.511-.041-1.015-.062-1.526-.1-.539-.034-1.073-.068-1.618-.1-.625-.034-1.256-.047-1.9-.068-.418-.013-.845-.034-1.263-.047q-1.6-.04-3.194-.04-1.543,0-3.087.04l-.2.007q-1.416.029-2.824.1l-.483.02c-.851.042-1.7.1-2.54.15l-.8.061c-.76.055-1.519.123-2.278.19-.306.027-.6.055-.908.089l-53.018-50.787a10.125,10.125,0,0,0-13.882,0l-.476.455a9.127,9.127,0,0,0,0,13.3l43.521,41.69c-.369.109-.738.224-1.107.34-.4.123-.795.246-1.192.374-.617.19-1.229.388-1.838.591-.389.13-.773.259-1.163.4-.49.17-.987.34-1.477.517-.511.183-1.029.374-1.54.564q-.63.233-1.256.469l-1.569.612-1.391.57c-.383.157-.76.313-1.142.476-.584.251-1.164.5-1.747.755-.369.164-.738.327-1.1.5q-.822.366-1.633.755c-.411.19-.816.387-1.227.585q-.585.275-1.171.571c-.553.272-1.108.55-1.653.837-.4.2-.789.408-1.179.611-.362.19-.724.387-1.085.585-.213.116-.433.224-.646.34l-65.139-62.4a10.128,10.128,0,0,0-13.883,0l-.475.456a9.126,9.126,0,0,0,0,13.3l62.478,59.856a123.414,123.414,0,0,0-18.006,17.255l-63.875-61.2a10.124,10.124,0,0,0-13.883,0l-.475.455a9.127,9.127,0,0,0,0,13.3l66.545,63.745-.186.313q-.4.683-.809,1.387c-.2.34-.39.687-.588,1.027-.306.55-.61,1.108-.909,1.665-.192.34-.369.687-.553,1.034-.242.456-.475.9-.71,1.36s-.447.891-.667,1.339c-.206.414-.412.829-.611,1.251-.219.449-.433.9-.639,1.353q-.328.7-.646,1.407c-.15.333-.3.666-.439,1-.271.606-.526,1.218-.789,1.829-.135.334-.269.673-.411,1.006q-.373.938-.746,1.877l-.362.959c-.191.517-.384,1.034-.568,1.557-.148.408-.3.823-.441,1.231-.177.517-.355,1.034-.524,1.557-.1.306-.206.612-.306.918l-38.545-36.924a10.12,10.12,0,0,0-13.889,0l-.476.448a9.137,9.137,0,0,0,0,13.3l48.056,46.028h0c-.028.251-.056.51-.078.761-.078.762-.149,1.523-.212,2.292l-.05.666c-.064.837-.121,1.666-.172,2.5l-.013.408c-.05.918-.086,1.829-.114,2.747v.17c-.028.986-.043,1.978-.043,2.97q0,1.54.043,3.06c.008.428.035.857.05,1.286.021.584.036,1.169.071,1.754.028.544.072,1.095.106,1.639.028.456.05.91.086,1.367.05.618.113,1.237.17,1.849.035.381.064.761.106,1.136.071.666.149,1.325.235,1.984.035.327.072.653.113.98q.138,1.028.3,2.066c.043.286.079.578.127.87.108.7.228,1.4.356,2.1.043.272.092.544.142.816.127.7.262,1.394.4,2.088.05.224.085.455.135.686L980.77,802.6a10.124,10.124,0,0,0-13.882,0l-.477.456a9.128,9.128,0,0,0,0,13.3l70.15,67.207a9.8,9.8,0,0,0,2.754,1.856l.142.177c.589.742,1.186,1.482,1.8,2.21l.34.408c.561.666,1.136,1.332,1.711,2l.418.469c.561.639,1.135,1.272,1.711,1.9l.447.482c.582.626,1.178,1.245,1.774,1.856l.426.442c.631.646,1.277,1.285,1.923,1.91l.327.32q3.482,3.365,7.232,6.466h0a127.085,127.085,0,0,0,57.808,26.862l.269.047c.945.17,1.889.333,2.838.491l.583.088q1.173.184,2.357.347l1.049.142c.463.055.917.116,1.377.17.668.082,1.342.15,2.016.218.37.041.738.075,1.108.115.752.068,1.511.13,2.27.191l.846.061c.837.054,1.675.109,2.512.15l.6.026q1.373.072,2.746.1l.328.007c1,.02,2,.033,3.009.033s1.995-.014,2.981-.033c.682-.014,1.355-.041,2.036-.068.271-.013.547-.013.817-.028.873-.04,1.739-.088,2.6-.142l.163-.014c.923-.061,1.853-.129,2.768-.211h0a129.127,129.127,0,0,0,27.424-5.378l.043-.013q5.759-1.794,11.271-4.106l.028-.014q5.494-2.294,10.7-5.078l.028-.014h0a123.521,123.521,0,0,0,47.24-44.273h0l.007-.014c.844-1.381,1.669-2.788,2.455-4.209l.086-.156c.483-.864.951-1.733,1.413-2.618l.192-.374c.432-.829.851-1.658,1.256-2.5l.169-.347q1.747-3.609,3.252-7.349l.084-.225c.362-.9.716-1.822,1.05-2.739l.143-.381c.318-.87.624-1.747.922-2.625l.108-.306h0a115.261,115.261,0,0,0,5.124-22.6l.005.007c.072-.592.144-1.183.208-1.775l.049-.469c.078-.775.15-1.551.214-2.332l.042-.523c.072-.857.121-1.721.171-2.584l.035-.585c.043-.877.078-1.747.1-2.631l.015-.462c.021-.932.035-1.871.035-2.809C1264.513,812.173,1264.5,811.208,1264.478,810.25ZM1139.289,911.51c-56.275,0-101.89-43.7-101.89-97.6s45.615-97.6,101.89-97.6,101.882,43.7,101.882,97.6S1195.555,911.51,1139.289,911.51Z" transform="translate(-961.053 -640.28)" fill="#000"/>
  </g>
</svg>
